<svg xmlns="http://www.w3.org/2000/svg" xmlns:xlink="http://www.w3.org/1999/xlink" width="100" zoomAndPan="magnify" viewBox="0 0 75 74.999997" height="100" preserveAspectRatio="xMidYMid meet" version="1.0"><defs><clipPath id="b08437596c"><path d="M 3.851562 9.613281 L 21 9.613281 L 21 22 L 3.851562 22 Z M 3.851562 9.613281 " clip-rule="nonzero"/></clipPath><clipPath id="c5b343b99e"><path d="M 3.851562 25 L 21 25 L 21 38 L 3.851562 38 Z M 3.851562 25 " clip-rule="nonzero"/></clipPath><clipPath id="9ce98fa4a5"><path d="M 3.851562 41 L 21 41 L 21 54 L 3.851562 54 Z M 3.851562 41 " clip-rule="nonzero"/></clipPath><clipPath id="bedbd61269"><path d="M 61 49 L 71.351562 49 L 71.351562 65.113281 L 61 65.113281 Z M 61 49 " clip-rule="nonzero"/></clipPath><clipPath id="c8b0a32bce"><path d="M 3.851562 9.613281 L 21 9.613281 L 21 22 L 3.851562 22 Z M 3.851562 9.613281 " clip-rule="nonzero"/></clipPath><clipPath id="4861dee9ff"><path d="M 3.851562 25 L 21 25 L 21 38 L 3.851562 38 Z M 3.851562 25 " clip-rule="nonzero"/></clipPath><clipPath id="81ea1bc81d"><path d="M 3.851562 41 L 21 41 L 21 54 L 3.851562 54 Z M 3.851562 41 " clip-rule="nonzero"/></clipPath><clipPath id="e8b037693d"><path d="M 61 49 L 71.351562 49 L 71.351562 65.113281 L 61 65.113281 Z M 61 49 " clip-rule="nonzero"/></clipPath></defs><rect x="-7.5" width="90" fill="#ffffff" y="-7.5" height="89.999996" fill-opacity="1"/><rect x="-7.5" width="90" fill="#ffffff" y="-7.5" height="89.999996" fill-opacity="1"/><g clip-path="url(#b08437596c)"><path fill="#ff3131" d="M 16.945312 21.503906 L 7.179688 21.503906 C 5.351562 21.503906 3.863281 20.019531 3.863281 18.191406 L 3.863281 12.929688 C 3.863281 11.101562 5.351562 9.613281 7.179688 9.613281 L 16.949219 9.613281 C 18.777344 9.613281 20.261719 11.101562 20.261719 12.929688 L 20.261719 18.191406 C 20.261719 20.019531 18.773438 21.503906 16.945312 21.503906 Z M 7.179688 11.136719 C 6.1875 11.136719 5.382812 11.941406 5.382812 12.929688 L 5.382812 18.191406 C 5.382812 19.183594 6.1875 19.988281 7.179688 19.988281 L 16.949219 19.988281 C 17.9375 19.988281 18.746094 19.183594 18.746094 18.191406 L 18.746094 12.929688 C 18.746094 11.9375 17.9375 11.132812 16.949219 11.132812 L 7.179688 11.132812 Z M 7.179688 11.136719 " fill-opacity="1" fill-rule="nonzero"/></g><path fill="#ff3131" d="M 57.675781 13.089844 L 22.957031 13.089844 C 22.539062 13.089844 22.199219 12.75 22.199219 12.328125 C 22.199219 11.910156 22.539062 11.570312 22.957031 11.570312 L 57.675781 11.570312 C 58.097656 11.570312 58.4375 11.910156 58.4375 12.328125 C 58.4375 12.75 58.097656 13.089844 57.675781 13.089844 Z M 57.675781 13.089844 " fill-opacity="1" fill-rule="nonzero"/><path fill="#ff3131" d="M 57.675781 19.550781 L 22.957031 19.550781 C 22.539062 19.550781 22.199219 19.210938 22.199219 18.792969 C 22.199219 18.371094 22.539062 18.03125 22.957031 18.03125 L 57.675781 18.03125 C 58.097656 18.03125 58.4375 18.371094 58.4375 18.792969 C 58.4375 19.210938 58.097656 19.550781 57.675781 19.550781 Z M 57.675781 19.550781 " fill-opacity="1" fill-rule="nonzero"/><g clip-path="url(#c5b343b99e)"><path fill="#ff3131" d="M 16.945312 37.4375 L 7.179688 37.4375 C 5.351562 37.4375 3.863281 35.949219 3.863281 34.121094 L 3.863281 28.859375 C 3.863281 27.03125 5.351562 25.546875 7.179688 25.546875 L 16.949219 25.546875 C 18.777344 25.546875 20.261719 27.03125 20.261719 28.859375 L 20.261719 34.121094 C 20.261719 35.949219 18.773438 37.4375 16.945312 37.4375 Z M 7.179688 27.066406 C 6.1875 27.066406 5.382812 27.871094 5.382812 28.863281 L 5.382812 34.121094 C 5.382812 35.113281 6.1875 35.917969 7.179688 35.917969 L 16.949219 35.917969 C 17.9375 35.917969 18.746094 35.113281 18.746094 34.121094 L 18.746094 28.863281 C 18.746094 27.871094 17.9375 27.066406 16.949219 27.066406 Z M 7.179688 27.066406 " fill-opacity="1" fill-rule="nonzero"/></g><path fill="#ff3131" d="M 42.929688 29.019531 L 22.957031 29.019531 C 22.539062 29.019531 22.199219 28.679688 22.199219 28.261719 C 22.199219 27.839844 22.539062 27.5 22.957031 27.5 L 42.929688 27.5 C 43.347656 27.5 43.6875 27.839844 43.6875 28.261719 C 43.6875 28.679688 43.347656 29.019531 42.929688 29.019531 Z M 42.929688 29.019531 " fill-opacity="1" fill-rule="nonzero"/><path fill="#ff3131" d="M 38.601562 35.480469 L 22.957031 35.480469 C 22.539062 35.480469 22.199219 35.140625 22.199219 34.722656 C 22.199219 34.304688 22.539062 33.964844 22.957031 33.964844 L 38.597656 33.964844 C 39.019531 33.964844 39.359375 34.304688 39.359375 34.722656 C 39.359375 35.140625 39.019531 35.480469 38.601562 35.480469 Z M 38.601562 35.480469 " fill-opacity="1" fill-rule="nonzero"/><g clip-path="url(#9ce98fa4a5)"><path fill="#ff3131" d="M 16.945312 53.367188 L 7.179688 53.367188 C 5.351562 53.367188 3.863281 51.878906 3.863281 50.050781 L 3.863281 44.792969 C 3.863281 42.964844 5.351562 41.476562 7.179688 41.476562 L 16.949219 41.476562 C 18.777344 41.476562 20.261719 42.964844 20.261719 44.792969 L 20.261719 50.050781 C 20.261719 51.878906 18.773438 53.367188 16.945312 53.367188 Z M 7.179688 42.996094 C 6.1875 42.996094 5.382812 43.800781 5.382812 44.792969 L 5.382812 50.054688 C 5.382812 51.042969 6.1875 51.851562 7.179688 51.851562 L 16.949219 51.851562 C 17.9375 51.851562 18.746094 51.042969 18.746094 50.054688 L 18.746094 44.792969 C 18.746094 43.800781 17.9375 42.996094 16.949219 42.996094 Z M 7.179688 42.996094 " fill-opacity="1" fill-rule="nonzero"/></g><path fill="#ff3131" d="M 38.636719 44.953125 L 22.957031 44.953125 C 22.539062 44.953125 22.199219 44.609375 22.199219 44.191406 C 22.199219 43.773438 22.539062 43.433594 22.957031 43.433594 L 38.636719 43.433594 C 39.054688 43.433594 39.394531 43.773438 39.394531 44.191406 C 39.394531 44.609375 39.054688 44.953125 38.636719 44.953125 Z M 38.636719 44.953125 " fill-opacity="1" fill-rule="nonzero"/><path fill="#ff3131" d="M 43.105469 51.414062 L 22.957031 51.414062 C 22.539062 51.414062 22.199219 51.074219 22.199219 50.652344 C 22.199219 50.234375 22.539062 49.894531 22.957031 49.894531 L 43.105469 49.894531 C 43.523438 49.894531 43.863281 50.234375 43.863281 50.652344 C 43.863281 51.074219 43.523438 51.414062 43.105469 51.414062 Z M 43.105469 51.414062 " fill-opacity="1" fill-rule="nonzero"/><path fill="#ff3131" d="M 55.710938 52.746094 C 54.550781 52.746094 53.386719 52.59375 52.234375 52.285156 C 48.792969 51.363281 45.914062 49.152344 44.132812 46.066406 C 42.351562 42.980469 41.878906 39.386719 42.800781 35.941406 C 43.722656 32.5 45.929688 29.621094 49.015625 27.839844 C 55.386719 24.160156 63.566406 26.351562 67.242188 32.726562 C 70.921875 39.097656 68.730469 47.273438 62.359375 50.953125 C 60.304688 52.136719 58.023438 52.746094 55.710938 52.746094 Z M 55.667969 27.574219 C 53.664062 27.574219 51.632812 28.082031 49.773438 29.15625 C 47.039062 30.734375 45.085938 33.285156 44.265625 36.335938 C 43.449219 39.386719 43.867188 42.570312 45.449219 45.308594 C 47.027344 48.042969 49.578125 49.996094 52.628906 50.816406 C 55.679688 51.632812 58.867188 51.214844 61.601562 49.632812 C 67.246094 46.375 69.1875 39.128906 65.929688 33.480469 C 63.742188 29.695312 59.757812 27.574219 55.667969 27.574219 Z M 55.667969 27.574219 " fill-opacity="1" fill-rule="nonzero"/><g clip-path="url(#bedbd61269)"><path fill="#ff3131" d="M 70.253906 65.378906 C 69.992188 65.378906 69.734375 65.242188 69.597656 65 L 61.324219 50.671875 C 61.113281 50.308594 61.238281 49.84375 61.601562 49.636719 C 61.964844 49.425781 62.429688 49.550781 62.640625 49.914062 L 70.910156 64.242188 C 71.121094 64.601562 70.996094 65.066406 70.632812 65.277344 C 70.511719 65.347656 70.382812 65.378906 70.253906 65.378906 Z M 70.253906 65.378906 " fill-opacity="1" fill-rule="nonzero"/></g><g clip-path="url(#c8b0a32bce)"><path fill="#ff3131" d="M 16.945312 21.503906 L 7.179688 21.503906 C 5.351562 21.503906 3.863281 20.019531 3.863281 18.191406 L 3.863281 12.929688 C 3.863281 11.101562 5.351562 9.613281 7.179688 9.613281 L 16.949219 9.613281 C 18.777344 9.613281 20.261719 11.101562 20.261719 12.929688 L 20.261719 18.191406 C 20.261719 20.019531 18.773438 21.503906 16.945312 21.503906 Z M 7.179688 11.136719 C 6.1875 11.136719 5.382812 11.941406 5.382812 12.929688 L 5.382812 18.191406 C 5.382812 19.183594 6.1875 19.988281 7.179688 19.988281 L 16.949219 19.988281 C 17.9375 19.988281 18.746094 19.183594 18.746094 18.191406 L 18.746094 12.929688 C 18.746094 11.9375 17.9375 11.132812 16.949219 11.132812 L 7.179688 11.132812 Z M 7.179688 11.136719 " fill-opacity="1" fill-rule="nonzero"/></g><path fill="#ff3131" d="M 57.675781 13.089844 L 22.957031 13.089844 C 22.539062 13.089844 22.199219 12.75 22.199219 12.328125 C 22.199219 11.910156 22.539062 11.570312 22.957031 11.570312 L 57.675781 11.570312 C 58.097656 11.570312 58.4375 11.910156 58.4375 12.328125 C 58.4375 12.75 58.097656 13.089844 57.675781 13.089844 Z M 57.675781 13.089844 " fill-opacity="1" fill-rule="nonzero"/><path fill="#ff3131" d="M 57.675781 19.550781 L 22.957031 19.550781 C 22.539062 19.550781 22.199219 19.210938 22.199219 18.792969 C 22.199219 18.371094 22.539062 18.03125 22.957031 18.03125 L 57.675781 18.03125 C 58.097656 18.03125 58.4375 18.371094 58.4375 18.792969 C 58.4375 19.210938 58.097656 19.550781 57.675781 19.550781 Z M 57.675781 19.550781 " fill-opacity="1" fill-rule="nonzero"/><g clip-path="url(#4861dee9ff)"><path fill="#ff3131" d="M 16.945312 37.4375 L 7.179688 37.4375 C 5.351562 37.4375 3.863281 35.949219 3.863281 34.121094 L 3.863281 28.859375 C 3.863281 27.03125 5.351562 25.546875 7.179688 25.546875 L 16.949219 25.546875 C 18.777344 25.546875 20.261719 27.03125 20.261719 28.859375 L 20.261719 34.121094 C 20.261719 35.949219 18.773438 37.4375 16.945312 37.4375 Z M 7.179688 27.066406 C 6.1875 27.066406 5.382812 27.871094 5.382812 28.863281 L 5.382812 34.121094 C 5.382812 35.113281 6.1875 35.917969 7.179688 35.917969 L 16.949219 35.917969 C 17.9375 35.917969 18.746094 35.113281 18.746094 34.121094 L 18.746094 28.863281 C 18.746094 27.871094 17.9375 27.066406 16.949219 27.066406 Z M 7.179688 27.066406 " fill-opacity="1" fill-rule="nonzero"/></g><path fill="#ff3131" d="M 42.929688 29.019531 L 22.957031 29.019531 C 22.539062 29.019531 22.199219 28.679688 22.199219 28.261719 C 22.199219 27.839844 22.539062 27.5 22.957031 27.5 L 42.929688 27.5 C 43.347656 27.5 43.6875 27.839844 43.6875 28.261719 C 43.6875 28.679688 43.347656 29.019531 42.929688 29.019531 Z M 42.929688 29.019531 " fill-opacity="1" fill-rule="nonzero"/><path fill="#ff3131" d="M 38.601562 35.480469 L 22.957031 35.480469 C 22.539062 35.480469 22.199219 35.140625 22.199219 34.722656 C 22.199219 34.304688 22.539062 33.964844 22.957031 33.964844 L 38.597656 33.964844 C 39.019531 33.964844 39.359375 34.304688 39.359375 34.722656 C 39.359375 35.140625 39.019531 35.480469 38.601562 35.480469 Z M 38.601562 35.480469 " fill-opacity="1" fill-rule="nonzero"/><g clip-path="url(#81ea1bc81d)"><path fill="#ff3131" d="M 16.945312 53.367188 L 7.179688 53.367188 C 5.351562 53.367188 3.863281 51.878906 3.863281 50.050781 L 3.863281 44.792969 C 3.863281 42.964844 5.351562 41.476562 7.179688 41.476562 L 16.949219 41.476562 C 18.777344 41.476562 20.261719 42.964844 20.261719 44.792969 L 20.261719 50.050781 C 20.261719 51.878906 18.773438 53.367188 16.945312 53.367188 Z M 7.179688 42.996094 C 6.1875 42.996094 5.382812 43.800781 5.382812 44.792969 L 5.382812 50.054688 C 5.382812 51.042969 6.1875 51.851562 7.179688 51.851562 L 16.949219 51.851562 C 17.9375 51.851562 18.746094 51.042969 18.746094 50.054688 L 18.746094 44.792969 C 18.746094 43.800781 17.9375 42.996094 16.949219 42.996094 Z M 7.179688 42.996094 " fill-opacity="1" fill-rule="nonzero"/></g><path fill="#ff3131" d="M 38.636719 44.953125 L 22.957031 44.953125 C 22.539062 44.953125 22.199219 44.609375 22.199219 44.191406 C 22.199219 43.773438 22.539062 43.433594 22.957031 43.433594 L 38.636719 43.433594 C 39.054688 43.433594 39.394531 43.773438 39.394531 44.191406 C 39.394531 44.609375 39.054688 44.953125 38.636719 44.953125 Z M 38.636719 44.953125 " fill-opacity="1" fill-rule="nonzero"/><path fill="#ff3131" d="M 43.105469 51.414062 L 22.957031 51.414062 C 22.539062 51.414062 22.199219 51.074219 22.199219 50.652344 C 22.199219 50.234375 22.539062 49.894531 22.957031 49.894531 L 43.105469 49.894531 C 43.523438 49.894531 43.863281 50.234375 43.863281 50.652344 C 43.863281 51.074219 43.523438 51.414062 43.105469 51.414062 Z M 43.105469 51.414062 " fill-opacity="1" fill-rule="nonzero"/><path fill="#ff3131" d="M 55.710938 52.746094 C 54.550781 52.746094 53.386719 52.59375 52.234375 52.285156 C 48.792969 51.363281 45.914062 49.152344 44.132812 46.066406 C 42.351562 42.980469 41.878906 39.386719 42.800781 35.941406 C 43.722656 32.5 45.929688 29.621094 49.015625 27.839844 C 55.386719 24.160156 63.566406 26.351562 67.242188 32.726562 C 70.921875 39.097656 68.730469 47.273438 62.359375 50.953125 C 60.304688 52.136719 58.023438 52.746094 55.710938 52.746094 Z M 55.667969 27.574219 C 53.664062 27.574219 51.632812 28.082031 49.773438 29.15625 C 47.039062 30.734375 45.085938 33.285156 44.265625 36.335938 C 43.449219 39.386719 43.867188 42.570312 45.449219 45.308594 C 47.027344 48.042969 49.578125 49.996094 52.628906 50.816406 C 55.679688 51.632812 58.867188 51.214844 61.601562 49.632812 C 67.246094 46.375 69.1875 39.128906 65.929688 33.480469 C 63.742188 29.695312 59.757812 27.574219 55.667969 27.574219 Z M 55.667969 27.574219 " fill-opacity="1" fill-rule="nonzero"/><g clip-path="url(#e8b037693d)"><path fill="#ff3131" d="M 70.253906 65.378906 C 69.992188 65.378906 69.734375 65.242188 69.597656 65 L 61.324219 50.671875 C 61.113281 50.308594 61.238281 49.84375 61.601562 49.636719 C 61.964844 49.425781 62.429688 49.550781 62.640625 49.914062 L 70.910156 64.242188 C 71.121094 64.601562 70.996094 65.066406 70.632812 65.277344 C 70.511719 65.347656 70.382812 65.378906 70.253906 65.378906 Z M 70.253906 65.378906 " fill-opacity="1" fill-rule="nonzero"/></g></svg>