<svg xmlns="http://www.w3.org/2000/svg" xmlns:xlink="http://www.w3.org/1999/xlink" width="100" zoomAndPan="magnify" viewBox="0 0 75 74.999997" height="100" preserveAspectRatio="xMidYMid meet" version="1.0"><defs><clipPath id="7f92fe00f1"><path d="M 8 2.460938 L 51 2.460938 L 51 59 L 8 59 Z M 8 2.460938 " clip-rule="nonzero"/></clipPath><clipPath id="d1dff21bb2"><path d="M 23 15 L 67.144531 15 L 67.144531 72.210938 L 23 72.210938 Z M 23 15 " clip-rule="nonzero"/></clipPath><clipPath id="d256e72a0a"><path d="M 7.5 2.460938 L 51 2.460938 L 51 59 L 7.5 59 Z M 7.5 2.460938 " clip-rule="nonzero"/></clipPath><clipPath id="30ccbaefd9"><path d="M 23 15 L 66.75 15 L 66.75 72.210938 L 23 72.210938 Z M 23 15 " clip-rule="nonzero"/></clipPath></defs><rect x="-7.5" width="90" fill="#ffffff" y="-7.5" height="89.999996" fill-opacity="1"/><rect x="-7.5" width="90" fill="#ffffff" y="-7.5" height="89.999996" fill-opacity="1"/><g clip-path="url(#7f92fe00f1)"><path fill="#004aad" d="M 11.171875 15.417969 C 11.171875 15.417969 44.597656 5.074219 44.652344 5.074219 C 45.199219 4.910156 45.796875 5.238281 46.015625 5.78125 L 48.464844 13.730469 L 50.75 13.730469 C 50.75 13.730469 48.082031 5.183594 48.082031 5.128906 C 47.539062 3.441406 45.742188 2.460938 44.054688 2.953125 L 10.574219 13.296875 C 8.886719 13.839844 7.90625 15.636719 8.449219 17.378906 L 21.242188 58.265625 L 21.242188 51.078125 L 10.464844 16.726562 C 10.300781 16.179688 10.628906 15.582031 11.171875 15.417969 Z M 11.171875 15.417969 " fill-opacity="1" fill-rule="nonzero"/></g><g clip-path="url(#d1dff21bb2)"><path fill="#004aad" d="M 63.816406 15.910156 L 26.796875 15.910156 C 25 15.910156 23.53125 17.378906 23.53125 19.175781 L 23.53125 69.261719 C 23.53125 71.058594 25 72.527344 26.796875 72.527344 L 63.816406 72.527344 C 65.613281 72.527344 67.082031 71.058594 67.082031 69.261719 L 67.082031 19.175781 C 67.082031 17.378906 65.613281 15.910156 63.816406 15.910156 Z M 28.972656 24.621094 C 28.972656 23.421875 29.953125 22.441406 31.152344 22.441406 L 40.40625 22.441406 C 41.605469 22.441406 42.585938 23.421875 42.585938 24.621094 L 42.585938 35.507812 C 42.585938 36.707031 41.605469 37.6875 40.40625 37.6875 L 31.152344 37.6875 C 29.953125 37.6875 28.972656 36.707031 28.972656 35.507812 Z M 43.671875 65.996094 L 30.0625 65.996094 C 29.464844 65.996094 28.972656 65.503906 28.972656 64.90625 C 28.972656 64.308594 29.464844 63.816406 30.0625 63.816406 L 43.671875 63.816406 C 44.273438 63.816406 44.761719 64.308594 44.761719 64.90625 C 44.761719 65.503906 44.273438 65.996094 43.671875 65.996094 Z M 43.671875 61.640625 L 30.0625 61.640625 C 29.464844 61.640625 28.972656 61.148438 28.972656 60.550781 C 28.972656 59.953125 29.464844 59.460938 30.0625 59.460938 L 43.671875 59.460938 C 44.273438 59.460938 44.761719 59.953125 44.761719 60.550781 C 44.761719 61.148438 44.273438 61.640625 43.671875 61.640625 Z M 43.671875 57.285156 L 30.0625 57.285156 C 29.464844 57.285156 28.972656 56.792969 28.972656 56.195312 C 28.972656 55.597656 29.464844 55.105469 30.0625 55.105469 L 43.671875 55.105469 C 44.273438 55.105469 44.761719 55.597656 44.761719 56.195312 C 44.761719 56.792969 44.273438 57.285156 43.671875 57.285156 Z M 43.671875 52.929688 L 30.0625 52.929688 C 29.464844 52.929688 28.972656 52.4375 28.972656 51.839844 C 28.972656 51.242188 29.464844 50.75 30.0625 50.75 L 43.671875 50.75 C 44.273438 50.75 44.761719 51.242188 44.761719 51.839844 C 44.761719 52.4375 44.273438 52.929688 43.671875 52.929688 Z M 61.640625 63.816406 C 61.640625 65.015625 60.660156 65.996094 59.460938 65.996094 L 50.207031 65.996094 C 49.007812 65.996094 48.027344 65.015625 48.027344 63.816406 L 48.027344 52.929688 C 48.027344 51.730469 49.007812 50.75 50.207031 50.75 L 59.460938 50.75 C 60.660156 50.75 61.640625 51.730469 61.640625 52.929688 Z M 60.550781 47.484375 L 30.0625 47.484375 C 29.464844 47.484375 28.972656 46.996094 28.972656 46.394531 C 28.972656 45.796875 29.464844 45.308594 30.0625 45.308594 L 60.550781 45.308594 C 61.148438 45.308594 61.640625 45.796875 61.640625 46.394531 C 61.640625 46.996094 61.148438 47.484375 60.550781 47.484375 Z M 60.550781 43.128906 L 30.0625 43.128906 C 29.464844 43.128906 28.972656 42.640625 28.972656 42.039062 C 28.972656 41.441406 29.464844 40.953125 30.0625 40.953125 L 60.550781 40.953125 C 61.148438 40.953125 61.640625 41.441406 61.640625 42.039062 C 61.640625 42.640625 61.148438 43.128906 60.550781 43.128906 Z M 60.550781 37.6875 L 46.941406 37.6875 C 46.339844 37.6875 45.851562 37.195312 45.851562 36.597656 C 45.851562 35.996094 46.339844 35.507812 46.941406 35.507812 L 60.550781 35.507812 C 61.148438 35.507812 61.640625 35.996094 61.640625 36.597656 C 61.640625 37.195312 61.148438 37.6875 60.550781 37.6875 Z M 60.550781 33.332031 L 46.941406 33.332031 C 46.339844 33.332031 45.851562 32.839844 45.851562 32.242188 C 45.851562 31.640625 46.339844 31.152344 46.941406 31.152344 L 60.550781 31.152344 C 61.148438 31.152344 61.640625 31.640625 61.640625 32.242188 C 61.640625 32.839844 61.148438 33.332031 60.550781 33.332031 Z M 60.550781 28.976562 L 46.941406 28.976562 C 46.339844 28.976562 45.851562 28.484375 45.851562 27.886719 C 45.851562 27.289062 46.339844 26.796875 46.941406 26.796875 L 60.550781 26.796875 C 61.148438 26.796875 61.640625 27.289062 61.640625 27.886719 C 61.640625 28.484375 61.148438 28.976562 60.550781 28.976562 Z M 60.550781 24.621094 L 46.941406 24.621094 C 46.339844 24.621094 45.851562 24.128906 45.851562 23.53125 C 45.851562 22.933594 46.339844 22.441406 46.941406 22.441406 L 60.550781 22.441406 C 61.148438 22.441406 61.640625 22.933594 61.640625 23.53125 C 61.640625 24.128906 61.148438 24.621094 60.550781 24.621094 Z M 60.550781 24.621094 " fill-opacity="1" fill-rule="nonzero"/></g><path fill="#004aad" d="M 59.027344 13.730469 L 57.992188 8.234375 C 57.828125 7.363281 57.339844 6.652344 56.628906 6.164062 C 55.921875 5.675781 55.050781 5.511719 54.179688 5.675781 L 51.023438 6.273438 L 53.417969 13.730469 Z M 59.027344 13.730469 " fill-opacity="1" fill-rule="nonzero"/><path fill="#004aad" d="M 17.214844 17.597656 C 16.617188 17.761719 16.34375 18.359375 16.507812 18.957031 L 21.351562 34.746094 L 21.351562 27.289062 L 18.574219 18.304688 C 18.414062 17.707031 17.8125 17.433594 17.214844 17.597656 Z M 17.214844 17.597656 " fill-opacity="1" fill-rule="nonzero"/><g clip-path="url(#d256e72a0a)"><path fill="#004aad" d="M 10.777344 15.417969 C 10.777344 15.417969 44.207031 5.074219 44.261719 5.074219 C 44.804688 4.910156 45.402344 5.238281 45.621094 5.78125 L 48.070312 13.730469 L 50.359375 13.730469 C 50.359375 13.730469 47.691406 5.183594 47.691406 5.128906 C 47.144531 3.441406 45.347656 2.460938 43.660156 2.953125 L 10.179688 13.296875 C 8.492188 13.839844 7.511719 15.636719 8.058594 17.378906 L 20.851562 58.265625 L 20.851562 51.078125 L 10.070312 16.726562 C 9.90625 16.179688 10.234375 15.582031 10.777344 15.417969 Z M 10.777344 15.417969 " fill-opacity="1" fill-rule="nonzero"/></g><g clip-path="url(#30ccbaefd9)"><path fill="#004aad" d="M 63.425781 15.910156 L 26.402344 15.910156 C 24.605469 15.910156 23.136719 17.378906 23.136719 19.175781 L 23.136719 69.261719 C 23.136719 71.058594 24.605469 72.527344 26.402344 72.527344 L 63.425781 72.527344 C 65.21875 72.527344 66.691406 71.058594 66.691406 69.261719 L 66.691406 19.175781 C 66.691406 17.378906 65.21875 15.910156 63.425781 15.910156 Z M 28.582031 24.621094 C 28.582031 23.421875 29.5625 22.441406 30.757812 22.441406 L 40.015625 22.441406 C 41.210938 22.441406 42.191406 23.421875 42.191406 24.621094 L 42.191406 35.507812 C 42.191406 36.707031 41.210938 37.6875 40.015625 37.6875 L 30.757812 37.6875 C 29.5625 37.6875 28.582031 36.707031 28.582031 35.507812 Z M 43.28125 65.996094 L 29.671875 65.996094 C 29.070312 65.996094 28.582031 65.503906 28.582031 64.90625 C 28.582031 64.308594 29.070312 63.816406 29.671875 63.816406 L 43.28125 63.816406 C 43.878906 63.816406 44.371094 64.308594 44.371094 64.90625 C 44.371094 65.503906 43.878906 65.996094 43.28125 65.996094 Z M 43.28125 61.640625 L 29.671875 61.640625 C 29.070312 61.640625 28.582031 61.148438 28.582031 60.550781 C 28.582031 59.953125 29.070312 59.460938 29.671875 59.460938 L 43.28125 59.460938 C 43.878906 59.460938 44.371094 59.953125 44.371094 60.550781 C 44.371094 61.148438 43.878906 61.640625 43.28125 61.640625 Z M 43.28125 57.285156 L 29.671875 57.285156 C 29.070312 57.285156 28.582031 56.792969 28.582031 56.195312 C 28.582031 55.597656 29.070312 55.105469 29.671875 55.105469 L 43.28125 55.105469 C 43.878906 55.105469 44.371094 55.597656 44.371094 56.195312 C 44.371094 56.792969 43.878906 57.285156 43.28125 57.285156 Z M 43.28125 52.929688 L 29.671875 52.929688 C 29.070312 52.929688 28.582031 52.4375 28.582031 51.839844 C 28.582031 51.242188 29.070312 50.75 29.671875 50.75 L 43.28125 50.75 C 43.878906 50.75 44.371094 51.242188 44.371094 51.839844 C 44.371094 52.4375 43.878906 52.929688 43.28125 52.929688 Z M 61.246094 63.816406 C 61.246094 65.015625 60.265625 65.996094 59.070312 65.996094 L 49.8125 65.996094 C 48.617188 65.996094 47.636719 65.015625 47.636719 63.816406 L 47.636719 52.929688 C 47.636719 51.730469 48.617188 50.75 49.8125 50.75 L 59.070312 50.75 C 60.265625 50.75 61.246094 51.730469 61.246094 52.929688 Z M 60.15625 47.484375 L 29.671875 47.484375 C 29.070312 47.484375 28.582031 46.996094 28.582031 46.394531 C 28.582031 45.796875 29.070312 45.308594 29.671875 45.308594 L 60.15625 45.308594 C 60.757812 45.308594 61.246094 45.796875 61.246094 46.394531 C 61.246094 46.996094 60.757812 47.484375 60.15625 47.484375 Z M 60.15625 43.128906 L 29.671875 43.128906 C 29.070312 43.128906 28.582031 42.640625 28.582031 42.039062 C 28.582031 41.441406 29.070312 40.953125 29.671875 40.953125 L 60.15625 40.953125 C 60.757812 40.953125 61.246094 41.441406 61.246094 42.039062 C 61.246094 42.640625 60.757812 43.128906 60.15625 43.128906 Z M 60.15625 37.6875 L 46.546875 37.6875 C 45.949219 37.6875 45.457031 37.195312 45.457031 36.597656 C 45.457031 35.996094 45.949219 35.507812 46.546875 35.507812 L 60.15625 35.507812 C 60.757812 35.507812 61.246094 35.996094 61.246094 36.597656 C 61.246094 37.195312 60.757812 37.6875 60.15625 37.6875 Z M 60.15625 33.332031 L 46.546875 33.332031 C 45.949219 33.332031 45.457031 32.839844 45.457031 32.242188 C 45.457031 31.640625 45.949219 31.152344 46.546875 31.152344 L 60.15625 31.152344 C 60.757812 31.152344 61.246094 31.640625 61.246094 32.242188 C 61.246094 32.839844 60.757812 33.332031 60.15625 33.332031 Z M 60.15625 28.976562 L 46.546875 28.976562 C 45.949219 28.976562 45.457031 28.484375 45.457031 27.886719 C 45.457031 27.289062 45.949219 26.796875 46.546875 26.796875 L 60.15625 26.796875 C 60.757812 26.796875 61.246094 27.289062 61.246094 27.886719 C 61.246094 28.484375 60.757812 28.976562 60.15625 28.976562 Z M 60.15625 24.621094 L 46.546875 24.621094 C 45.949219 24.621094 45.457031 24.128906 45.457031 23.53125 C 45.457031 22.933594 45.949219 22.441406 46.546875 22.441406 L 60.15625 22.441406 C 60.757812 22.441406 61.246094 22.933594 61.246094 23.53125 C 61.246094 24.128906 60.757812 24.621094 60.15625 24.621094 Z M 60.15625 24.621094 " fill-opacity="1" fill-rule="nonzero"/></g><path fill="#004aad" d="M 58.632812 13.730469 L 57.597656 8.234375 C 57.433594 7.363281 56.945312 6.652344 56.238281 6.164062 C 55.53125 5.675781 54.660156 5.511719 53.789062 5.675781 L 50.628906 6.273438 L 53.027344 13.730469 Z M 58.632812 13.730469 " fill-opacity="1" fill-rule="nonzero"/><path fill="#004aad" d="M 16.820312 17.597656 C 16.222656 17.761719 15.949219 18.359375 16.113281 18.957031 L 20.960938 34.746094 L 20.960938 27.289062 L 18.183594 18.304688 C 18.019531 17.707031 17.421875 17.433594 16.820312 17.597656 Z M 16.820312 17.597656 " fill-opacity="1" fill-rule="nonzero"/></svg>