<svg xmlns="http://www.w3.org/2000/svg" xmlns:xlink="http://www.w3.org/1999/xlink" width="100" zoomAndPan="magnify" viewBox="0 0 75 74.999997" height="100" preserveAspectRatio="xMidYMid meet" version="1.0"><defs><clipPath id="e702b1f6e1"><path d="M 22 8.382812 L 70.414062 8.382812 L 70.414062 66.882812 L 22 66.882812 Z M 22 8.382812 " clip-rule="nonzero"/></clipPath><clipPath id="6a23e62c27"><path d="M 22 8.382812 L 34 8.382812 L 34 29 L 22 29 Z M 22 8.382812 " clip-rule="nonzero"/></clipPath><clipPath id="c9c18c2980"><path d="M 22 50 L 34 50 L 34 66.882812 L 22 66.882812 Z M 22 50 " clip-rule="nonzero"/></clipPath><clipPath id="81da4dcf52"><path d="M 4.414062 47 L 24 47 L 24 66.882812 L 4.414062 66.882812 Z M 4.414062 47 " clip-rule="nonzero"/></clipPath><clipPath id="8d7183c079"><path d="M 22 8.382812 L 70.414062 8.382812 L 70.414062 66.882812 L 22 66.882812 Z M 22 8.382812 " clip-rule="nonzero"/></clipPath><clipPath id="1dcfacdb7b"><path d="M 22 8.382812 L 34 8.382812 L 34 29 L 22 29 Z M 22 8.382812 " clip-rule="nonzero"/></clipPath><clipPath id="b0039f385c"><path d="M 22 50 L 34 50 L 34 66.882812 L 22 66.882812 Z M 22 50 " clip-rule="nonzero"/></clipPath><clipPath id="6a7ff154a5"><path d="M 4.414062 47 L 24 47 L 24 66.882812 L 4.414062 66.882812 Z M 4.414062 47 " clip-rule="nonzero"/></clipPath></defs><rect x="-7.5" width="90" fill="#ffffff" y="-7.5" height="89.999996" fill-opacity="1"/><rect x="-7.5" width="90" fill="#ffffff" y="-7.5" height="89.999996" fill-opacity="1"/><path fill="#00bf63" d="M 33.988281 44.230469 C 33.886719 44.230469 33.78125 44.191406 33.699219 44.117188 C 33.5625 43.992188 33.523438 43.789062 33.605469 43.617188 L 34.628906 41.527344 C 34.871094 41.027344 34.988281 40.484375 34.980469 39.933594 L 33.445312 39.933594 C 32.851562 39.933594 32.367188 39.449219 32.367188 38.855469 L 32.367188 36.1875 C 32.367188 35.59375 32.851562 35.109375 33.445312 35.109375 L 37.722656 35.109375 C 38.316406 35.109375 38.800781 35.59375 38.800781 36.1875 L 38.800781 39.507812 C 38.800781 39.585938 38.777344 41.386719 36.691406 42.710938 C 36.6875 42.710938 36.683594 42.714844 36.679688 42.71875 L 34.207031 44.171875 C 34.136719 44.210938 34.0625 44.230469 33.988281 44.230469 Z M 33.445312 35.960938 C 33.320312 35.960938 33.21875 36.0625 33.21875 36.1875 L 33.21875 38.855469 C 33.21875 38.980469 33.320312 39.082031 33.445312 39.082031 L 35.375 39.082031 C 35.589844 39.082031 35.769531 39.242188 35.796875 39.457031 C 35.902344 40.292969 35.761719 41.140625 35.390625 41.898438 L 34.992188 42.722656 L 36.238281 41.988281 C 37.90625 40.925781 37.949219 39.5625 37.949219 39.503906 L 37.949219 36.1875 C 37.949219 36.0625 37.847656 35.960938 37.722656 35.960938 Z M 33.445312 35.960938 " fill-opacity="1" fill-rule="nonzero"/><path fill="#00bf63" d="M 26.167969 44.230469 C 26.0625 44.230469 25.957031 44.191406 25.878906 44.117188 C 25.738281 43.992188 25.703125 43.789062 25.785156 43.617188 L 26.804688 41.527344 C 27.046875 41.027344 27.167969 40.484375 27.15625 39.933594 L 25.621094 39.933594 C 25.027344 39.933594 24.542969 39.449219 24.542969 38.855469 L 24.542969 36.1875 C 24.542969 35.59375 25.027344 35.109375 25.621094 35.109375 L 29.898438 35.109375 C 30.492188 35.109375 30.976562 35.59375 30.976562 36.1875 L 30.976562 39.507812 C 30.976562 39.585938 30.953125 41.386719 28.867188 42.710938 C 28.863281 42.710938 28.859375 42.714844 28.855469 42.71875 L 26.382812 44.171875 C 26.316406 44.210938 26.242188 44.230469 26.167969 44.230469 Z M 25.621094 35.960938 C 25.496094 35.960938 25.394531 36.0625 25.394531 36.1875 L 25.394531 38.855469 C 25.394531 38.980469 25.496094 39.082031 25.621094 39.082031 L 27.550781 39.082031 C 27.765625 39.082031 27.949219 39.242188 27.976562 39.457031 C 28.078125 40.292969 27.941406 41.140625 27.570312 41.898438 L 27.167969 42.722656 L 28.417969 41.988281 C 30.085938 40.925781 30.125 39.5625 30.125 39.503906 L 30.125 36.1875 C 30.125 36.0625 30.023438 35.960938 29.898438 35.960938 Z M 25.621094 35.960938 " fill-opacity="1" fill-rule="nonzero"/><path fill="#00bf63" d="M 31.671875 54.613281 C 27.679688 54.613281 23.925781 53.058594 21.105469 50.238281 C 18.28125 47.414062 16.726562 43.660156 16.726562 39.671875 C 16.726562 35.679688 18.28125 31.925781 21.105469 29.101562 C 23.925781 26.28125 27.679688 24.726562 31.671875 24.726562 C 35.664062 24.726562 39.417969 26.28125 42.238281 29.101562 C 45.0625 31.925781 46.617188 35.679688 46.617188 39.671875 C 46.617188 43.660156 45.0625 47.414062 42.238281 50.238281 C 39.417969 53.058594 35.664062 54.613281 31.671875 54.613281 Z M 31.671875 25.578125 C 27.90625 25.578125 24.367188 27.042969 21.707031 29.703125 C 19.046875 32.367188 17.578125 35.90625 17.578125 39.671875 C 17.578125 43.433594 19.046875 46.972656 21.707031 49.636719 C 24.367188 52.296875 27.90625 53.761719 31.671875 53.761719 C 35.4375 53.761719 38.976562 52.296875 41.636719 49.636719 C 44.296875 46.972656 45.765625 43.433594 45.765625 39.671875 C 45.765625 35.90625 44.296875 32.367188 41.636719 29.703125 C 38.976562 27.042969 35.4375 25.578125 31.671875 25.578125 Z M 41.9375 49.9375 Z M 41.9375 49.9375 " fill-opacity="1" fill-rule="nonzero"/><g clip-path="url(#e702b1f6e1)"><path fill="#00bf63" d="M 67.386719 66.617188 L 25.867188 66.617188 C 24.121094 66.617188 22.699219 65.195312 22.699219 63.449219 L 22.699219 51.410156 C 22.699219 51.25 22.789062 51.101562 22.933594 51.027344 C 23.074219 50.957031 23.246094 50.96875 23.375 51.0625 C 26.058594 53.023438 29.375 53.96875 32.707031 53.726562 C 36.074219 53.476562 39.246094 52.027344 41.636719 49.636719 C 44.296875 46.972656 45.765625 43.433594 45.765625 39.671875 C 45.765625 35.90625 44.296875 32.367188 41.636719 29.707031 C 39.246094 27.3125 36.074219 25.863281 32.707031 25.617188 C 29.375 25.371094 26.0625 26.316406 23.375 28.277344 C 23.246094 28.371094 23.074219 28.382812 22.933594 28.3125 C 22.789062 28.238281 22.699219 28.09375 22.699219 27.933594 L 22.699219 11.554688 C 22.699219 9.808594 24.121094 8.386719 25.867188 8.386719 L 67.386719 8.386719 C 69.132812 8.386719 70.554688 9.808594 70.554688 11.554688 L 70.554688 63.449219 C 70.554688 65.195312 69.132812 66.617188 67.386719 66.617188 Z M 23.550781 52.21875 L 23.550781 63.449219 C 23.550781 64.726562 24.589844 65.765625 25.867188 65.765625 L 67.386719 65.765625 C 68.664062 65.765625 69.703125 64.726562 69.703125 63.449219 L 69.703125 11.554688 C 69.703125 10.277344 68.664062 9.238281 67.386719 9.238281 L 25.867188 9.238281 C 24.589844 9.238281 23.550781 10.277344 23.550781 11.554688 L 23.550781 27.121094 C 26.269531 25.359375 29.511719 24.527344 32.769531 24.765625 C 36.339844 25.027344 39.703125 26.566406 42.238281 29.101562 C 45.0625 31.925781 46.617188 35.679688 46.617188 39.671875 C 46.617188 43.660156 45.0625 47.414062 42.238281 50.238281 C 39.703125 52.773438 36.339844 54.3125 32.769531 54.574219 C 29.511719 54.8125 26.269531 53.980469 23.550781 52.21875 Z M 23.550781 52.21875 " fill-opacity="1" fill-rule="nonzero"/></g><g clip-path="url(#6a23e62c27)"><path fill="#00bf63" d="M 23.125 28.359375 C 23.058594 28.359375 22.992188 28.34375 22.933594 28.3125 C 22.789062 28.238281 22.699219 28.09375 22.699219 27.933594 L 22.699219 11.554688 C 22.699219 9.808594 24.121094 8.386719 25.867188 8.386719 L 33.070312 8.386719 C 33.304688 8.386719 33.496094 8.578125 33.496094 8.8125 L 33.496094 25.21875 C 33.496094 25.339844 33.445312 25.453125 33.355469 25.535156 C 33.265625 25.613281 33.148438 25.652344 33.027344 25.640625 C 29.582031 25.3125 26.15625 26.246094 23.375 28.277344 C 23.300781 28.328125 23.214844 28.359375 23.125 28.359375 Z M 25.867188 9.238281 C 24.589844 9.238281 23.550781 10.277344 23.550781 11.554688 L 23.550781 27.121094 C 26.238281 25.378906 29.421875 24.546875 32.644531 24.757812 L 32.644531 9.238281 Z M 25.867188 9.238281 " fill-opacity="1" fill-rule="nonzero"/></g><g clip-path="url(#c9c18c2980)"><path fill="#00bf63" d="M 33.070312 66.617188 L 25.867188 66.617188 C 24.121094 66.617188 22.699219 65.195312 22.699219 63.449219 L 22.699219 51.410156 C 22.699219 51.25 22.789062 51.101562 22.933594 51.027344 C 23.074219 50.957031 23.246094 50.96875 23.375 51.0625 C 26.15625 53.09375 29.582031 54.027344 33.027344 53.699219 C 33.148438 53.6875 33.265625 53.726562 33.355469 53.804688 C 33.445312 53.886719 33.496094 54 33.496094 54.121094 L 33.496094 66.191406 C 33.496094 66.425781 33.304688 66.617188 33.070312 66.617188 Z M 23.550781 52.21875 L 23.550781 63.449219 C 23.550781 64.726562 24.589844 65.765625 25.867188 65.765625 L 32.644531 65.765625 L 32.644531 54.582031 C 29.421875 54.792969 26.238281 53.960938 23.550781 52.21875 Z M 23.550781 52.21875 " fill-opacity="1" fill-rule="nonzero"/></g><path fill="#00bf63" d="M 31.671875 51.671875 C 28.464844 51.671875 25.453125 50.421875 23.1875 48.15625 C 20.917969 45.890625 19.671875 42.875 19.671875 39.671875 C 19.671875 36.464844 20.917969 33.449219 23.1875 31.183594 C 27.863281 26.503906 35.480469 26.503906 40.15625 31.183594 C 42.425781 33.449219 43.671875 36.464844 43.671875 39.671875 C 43.671875 42.875 42.425781 45.890625 40.15625 48.15625 C 37.890625 50.421875 34.878906 51.671875 31.671875 51.671875 Z M 31.671875 28.519531 C 28.695312 28.519531 25.894531 29.679688 23.789062 31.785156 C 21.683594 33.890625 20.523438 36.691406 20.523438 39.671875 C 20.523438 42.648438 21.683594 45.449219 23.789062 47.554688 C 25.894531 49.660156 28.695312 50.820312 31.671875 50.820312 C 34.648438 50.820312 37.449219 49.660156 39.554688 47.554688 C 41.660156 45.449219 42.820312 42.648438 42.820312 39.671875 C 42.820312 36.691406 41.660156 33.890625 39.554688 31.785156 C 37.449219 29.679688 34.648438 28.519531 31.671875 28.519531 Z M 31.671875 28.519531 " fill-opacity="1" fill-rule="nonzero"/><g clip-path="url(#81da4dcf52)"><path fill="#00bf63" d="M 7.644531 66.617188 C 6.894531 66.617188 6.148438 66.332031 5.578125 65.761719 C 4.441406 64.625 4.441406 62.773438 5.578125 61.636719 L 19.492188 47.722656 C 19.582031 47.632812 19.703125 47.585938 19.832031 47.597656 C 19.957031 47.609375 20.070312 47.675781 20.140625 47.777344 C 20.609375 48.4375 21.132812 49.0625 21.707031 49.636719 C 22.28125 50.207031 22.90625 50.734375 23.566406 51.199219 C 23.667969 51.273438 23.734375 51.386719 23.746094 51.511719 C 23.753906 51.636719 23.710938 51.761719 23.621094 51.847656 L 9.707031 65.761719 C 9.136719 66.332031 8.390625 66.617188 7.644531 66.617188 Z M 19.742188 48.675781 L 6.179688 62.238281 C 5.375 63.042969 5.375 64.355469 6.179688 65.160156 C 6.988281 65.96875 8.296875 65.96875 9.105469 65.160156 L 22.667969 51.597656 C 22.117188 51.179688 21.59375 50.726562 21.105469 50.238281 C 20.617188 49.75 20.160156 49.226562 19.742188 48.675781 Z M 19.742188 48.675781 " fill-opacity="1" fill-rule="nonzero"/></g><path fill="#00bf63" d="M 20.078125 55.214844 C 19.96875 55.214844 19.859375 55.175781 19.777344 55.089844 L 16.25 51.566406 C 16.171875 51.484375 16.125 51.378906 16.125 51.265625 C 16.125 51.152344 16.171875 51.042969 16.25 50.964844 L 19.492188 47.722656 C 19.582031 47.632812 19.703125 47.585938 19.832031 47.597656 C 19.957031 47.609375 20.070312 47.675781 20.140625 47.777344 C 20.609375 48.4375 21.132812 49.0625 21.707031 49.636719 C 22.277344 50.207031 22.90625 50.734375 23.566406 51.199219 C 23.667969 51.273438 23.734375 51.386719 23.746094 51.511719 C 23.753906 51.636719 23.710938 51.761719 23.621094 51.847656 L 20.378906 55.089844 C 20.296875 55.175781 20.1875 55.214844 20.078125 55.214844 Z M 17.152344 51.265625 L 20.078125 54.1875 L 22.667969 51.597656 C 22.117188 51.179688 21.59375 50.726562 21.105469 50.238281 C 20.617188 49.75 20.160156 49.226562 19.742188 48.675781 Z M 17.152344 51.265625 " fill-opacity="1" fill-rule="nonzero"/><path fill="#00bf63" d="M 33.988281 44.230469 C 33.886719 44.230469 33.78125 44.191406 33.699219 44.117188 C 33.5625 43.992188 33.523438 43.789062 33.605469 43.617188 L 34.628906 41.527344 C 34.871094 41.027344 34.988281 40.484375 34.980469 39.933594 L 33.445312 39.933594 C 32.851562 39.933594 32.367188 39.449219 32.367188 38.855469 L 32.367188 36.1875 C 32.367188 35.59375 32.851562 35.109375 33.445312 35.109375 L 37.722656 35.109375 C 38.316406 35.109375 38.800781 35.59375 38.800781 36.1875 L 38.800781 39.507812 C 38.800781 39.585938 38.777344 41.386719 36.691406 42.710938 C 36.6875 42.710938 36.683594 42.714844 36.679688 42.71875 L 34.207031 44.171875 C 34.136719 44.210938 34.0625 44.230469 33.988281 44.230469 Z M 33.445312 35.960938 C 33.320312 35.960938 33.21875 36.0625 33.21875 36.1875 L 33.21875 38.855469 C 33.21875 38.980469 33.320312 39.082031 33.445312 39.082031 L 35.375 39.082031 C 35.589844 39.082031 35.769531 39.242188 35.796875 39.457031 C 35.902344 40.292969 35.761719 41.140625 35.390625 41.898438 L 34.992188 42.722656 L 36.238281 41.988281 C 37.90625 40.925781 37.949219 39.5625 37.949219 39.503906 L 37.949219 36.1875 C 37.949219 36.0625 37.847656 35.960938 37.722656 35.960938 Z M 33.445312 35.960938 " fill-opacity="1" fill-rule="nonzero"/><path fill="#00bf63" d="M 26.167969 44.230469 C 26.0625 44.230469 25.957031 44.191406 25.878906 44.117188 C 25.738281 43.992188 25.703125 43.789062 25.785156 43.617188 L 26.804688 41.527344 C 27.046875 41.027344 27.167969 40.484375 27.15625 39.933594 L 25.621094 39.933594 C 25.027344 39.933594 24.542969 39.449219 24.542969 38.855469 L 24.542969 36.1875 C 24.542969 35.59375 25.027344 35.109375 25.621094 35.109375 L 29.898438 35.109375 C 30.492188 35.109375 30.976562 35.59375 30.976562 36.1875 L 30.976562 39.507812 C 30.976562 39.585938 30.953125 41.386719 28.867188 42.710938 C 28.863281 42.710938 28.859375 42.714844 28.855469 42.71875 L 26.382812 44.171875 C 26.316406 44.210938 26.242188 44.230469 26.167969 44.230469 Z M 25.621094 35.960938 C 25.496094 35.960938 25.394531 36.0625 25.394531 36.1875 L 25.394531 38.855469 C 25.394531 38.980469 25.496094 39.082031 25.621094 39.082031 L 27.550781 39.082031 C 27.765625 39.082031 27.949219 39.242188 27.976562 39.457031 C 28.078125 40.292969 27.941406 41.140625 27.570312 41.898438 L 27.167969 42.722656 L 28.417969 41.988281 C 30.085938 40.925781 30.125 39.5625 30.125 39.503906 L 30.125 36.1875 C 30.125 36.0625 30.023438 35.960938 29.898438 35.960938 Z M 25.621094 35.960938 " fill-opacity="1" fill-rule="nonzero"/><path fill="#00bf63" d="M 31.671875 54.613281 C 27.679688 54.613281 23.925781 53.058594 21.105469 50.238281 C 18.28125 47.414062 16.726562 43.660156 16.726562 39.671875 C 16.726562 35.679688 18.28125 31.925781 21.105469 29.101562 C 23.925781 26.28125 27.679688 24.726562 31.671875 24.726562 C 35.664062 24.726562 39.417969 26.28125 42.238281 29.101562 C 45.0625 31.925781 46.617188 35.679688 46.617188 39.671875 C 46.617188 43.660156 45.0625 47.414062 42.238281 50.238281 C 39.417969 53.058594 35.664062 54.613281 31.671875 54.613281 Z M 31.671875 25.578125 C 27.90625 25.578125 24.367188 27.042969 21.707031 29.703125 C 19.046875 32.367188 17.578125 35.90625 17.578125 39.671875 C 17.578125 43.433594 19.046875 46.972656 21.707031 49.636719 C 24.367188 52.296875 27.90625 53.761719 31.671875 53.761719 C 35.4375 53.761719 38.976562 52.296875 41.636719 49.636719 C 44.296875 46.972656 45.765625 43.433594 45.765625 39.671875 C 45.765625 35.90625 44.296875 32.367188 41.636719 29.703125 C 38.976562 27.042969 35.4375 25.578125 31.671875 25.578125 Z M 41.9375 49.9375 Z M 41.9375 49.9375 " fill-opacity="1" fill-rule="nonzero"/><g clip-path="url(#8d7183c079)"><path fill="#00bf63" d="M 67.386719 66.617188 L 25.867188 66.617188 C 24.121094 66.617188 22.699219 65.195312 22.699219 63.449219 L 22.699219 51.410156 C 22.699219 51.25 22.789062 51.101562 22.933594 51.027344 C 23.074219 50.957031 23.246094 50.96875 23.375 51.0625 C 26.058594 53.023438 29.375 53.96875 32.707031 53.726562 C 36.074219 53.476562 39.246094 52.027344 41.636719 49.636719 C 44.296875 46.972656 45.765625 43.433594 45.765625 39.671875 C 45.765625 35.90625 44.296875 32.367188 41.636719 29.707031 C 39.246094 27.3125 36.074219 25.863281 32.707031 25.617188 C 29.375 25.371094 26.0625 26.316406 23.375 28.277344 C 23.246094 28.371094 23.074219 28.382812 22.933594 28.3125 C 22.789062 28.238281 22.699219 28.09375 22.699219 27.933594 L 22.699219 11.554688 C 22.699219 9.808594 24.121094 8.386719 25.867188 8.386719 L 67.386719 8.386719 C 69.132812 8.386719 70.554688 9.808594 70.554688 11.554688 L 70.554688 63.449219 C 70.554688 65.195312 69.132812 66.617188 67.386719 66.617188 Z M 23.550781 52.21875 L 23.550781 63.449219 C 23.550781 64.726562 24.589844 65.765625 25.867188 65.765625 L 67.386719 65.765625 C 68.664062 65.765625 69.703125 64.726562 69.703125 63.449219 L 69.703125 11.554688 C 69.703125 10.277344 68.664062 9.238281 67.386719 9.238281 L 25.867188 9.238281 C 24.589844 9.238281 23.550781 10.277344 23.550781 11.554688 L 23.550781 27.121094 C 26.269531 25.359375 29.511719 24.527344 32.769531 24.765625 C 36.339844 25.027344 39.703125 26.566406 42.238281 29.101562 C 45.0625 31.925781 46.617188 35.679688 46.617188 39.671875 C 46.617188 43.660156 45.0625 47.414062 42.238281 50.238281 C 39.703125 52.773438 36.339844 54.3125 32.769531 54.574219 C 29.511719 54.8125 26.269531 53.980469 23.550781 52.21875 Z M 23.550781 52.21875 " fill-opacity="1" fill-rule="nonzero"/></g><g clip-path="url(#1dcfacdb7b)"><path fill="#00bf63" d="M 23.125 28.359375 C 23.058594 28.359375 22.992188 28.34375 22.933594 28.3125 C 22.789062 28.238281 22.699219 28.09375 22.699219 27.933594 L 22.699219 11.554688 C 22.699219 9.808594 24.121094 8.386719 25.867188 8.386719 L 33.070312 8.386719 C 33.304688 8.386719 33.496094 8.578125 33.496094 8.8125 L 33.496094 25.21875 C 33.496094 25.339844 33.445312 25.453125 33.355469 25.535156 C 33.265625 25.613281 33.148438 25.652344 33.027344 25.640625 C 29.582031 25.3125 26.15625 26.246094 23.375 28.277344 C 23.300781 28.328125 23.214844 28.359375 23.125 28.359375 Z M 25.867188 9.238281 C 24.589844 9.238281 23.550781 10.277344 23.550781 11.554688 L 23.550781 27.121094 C 26.238281 25.378906 29.421875 24.546875 32.644531 24.757812 L 32.644531 9.238281 Z M 25.867188 9.238281 " fill-opacity="1" fill-rule="nonzero"/></g><g clip-path="url(#b0039f385c)"><path fill="#00bf63" d="M 33.070312 66.617188 L 25.867188 66.617188 C 24.121094 66.617188 22.699219 65.195312 22.699219 63.449219 L 22.699219 51.410156 C 22.699219 51.25 22.789062 51.101562 22.933594 51.027344 C 23.074219 50.957031 23.246094 50.96875 23.375 51.0625 C 26.15625 53.09375 29.582031 54.027344 33.027344 53.699219 C 33.148438 53.6875 33.265625 53.726562 33.355469 53.804688 C 33.445312 53.886719 33.496094 54 33.496094 54.121094 L 33.496094 66.191406 C 33.496094 66.425781 33.304688 66.617188 33.070312 66.617188 Z M 23.550781 52.21875 L 23.550781 63.449219 C 23.550781 64.726562 24.589844 65.765625 25.867188 65.765625 L 32.644531 65.765625 L 32.644531 54.582031 C 29.421875 54.792969 26.238281 53.960938 23.550781 52.21875 Z M 23.550781 52.21875 " fill-opacity="1" fill-rule="nonzero"/></g><path fill="#00bf63" d="M 31.671875 51.671875 C 28.464844 51.671875 25.453125 50.421875 23.1875 48.15625 C 20.917969 45.890625 19.671875 42.875 19.671875 39.671875 C 19.671875 36.464844 20.917969 33.449219 23.1875 31.183594 C 27.863281 26.503906 35.480469 26.503906 40.15625 31.183594 C 42.425781 33.449219 43.671875 36.464844 43.671875 39.671875 C 43.671875 42.875 42.425781 45.890625 40.15625 48.15625 C 37.890625 50.421875 34.878906 51.671875 31.671875 51.671875 Z M 31.671875 28.519531 C 28.695312 28.519531 25.894531 29.679688 23.789062 31.785156 C 21.683594 33.890625 20.523438 36.691406 20.523438 39.671875 C 20.523438 42.648438 21.683594 45.449219 23.789062 47.554688 C 25.894531 49.660156 28.695312 50.820312 31.671875 50.820312 C 34.648438 50.820312 37.449219 49.660156 39.554688 47.554688 C 41.660156 45.449219 42.820312 42.648438 42.820312 39.671875 C 42.820312 36.691406 41.660156 33.890625 39.554688 31.785156 C 37.449219 29.679688 34.648438 28.519531 31.671875 28.519531 Z M 31.671875 28.519531 " fill-opacity="1" fill-rule="nonzero"/><g clip-path="url(#6a7ff154a5)"><path fill="#00bf63" d="M 7.644531 66.617188 C 6.894531 66.617188 6.148438 66.332031 5.578125 65.761719 C 4.441406 64.625 4.441406 62.773438 5.578125 61.636719 L 19.492188 47.722656 C 19.582031 47.632812 19.703125 47.585938 19.832031 47.597656 C 19.957031 47.609375 20.070312 47.675781 20.140625 47.777344 C 20.609375 48.4375 21.132812 49.0625 21.707031 49.636719 C 22.28125 50.207031 22.90625 50.734375 23.566406 51.199219 C 23.667969 51.273438 23.734375 51.386719 23.746094 51.511719 C 23.753906 51.636719 23.710938 51.761719 23.621094 51.847656 L 9.707031 65.761719 C 9.136719 66.332031 8.390625 66.617188 7.644531 66.617188 Z M 19.742188 48.675781 L 6.179688 62.238281 C 5.375 63.042969 5.375 64.355469 6.179688 65.160156 C 6.988281 65.96875 8.296875 65.96875 9.105469 65.160156 L 22.667969 51.597656 C 22.117188 51.179688 21.59375 50.726562 21.105469 50.238281 C 20.617188 49.75 20.160156 49.226562 19.742188 48.675781 Z M 19.742188 48.675781 " fill-opacity="1" fill-rule="nonzero"/></g><path fill="#00bf63" d="M 20.078125 55.214844 C 19.96875 55.214844 19.859375 55.175781 19.777344 55.089844 L 16.25 51.566406 C 16.171875 51.484375 16.125 51.378906 16.125 51.265625 C 16.125 51.152344 16.171875 51.042969 16.25 50.964844 L 19.492188 47.722656 C 19.582031 47.632812 19.703125 47.585938 19.832031 47.597656 C 19.957031 47.609375 20.070312 47.675781 20.140625 47.777344 C 20.609375 48.4375 21.132812 49.0625 21.707031 49.636719 C 22.277344 50.207031 22.90625 50.734375 23.566406 51.199219 C 23.667969 51.273438 23.734375 51.386719 23.746094 51.511719 C 23.753906 51.636719 23.710938 51.761719 23.621094 51.847656 L 20.378906 55.089844 C 20.296875 55.175781 20.1875 55.214844 20.078125 55.214844 Z M 17.152344 51.265625 L 20.078125 54.1875 L 22.667969 51.597656 C 22.117188 51.179688 21.59375 50.726562 21.105469 50.238281 C 20.617188 49.75 20.160156 49.226562 19.742188 48.675781 Z M 17.152344 51.265625 " fill-opacity="1" fill-rule="nonzero"/></svg>