<svg xmlns="http://www.w3.org/2000/svg" xmlns:xlink="http://www.w3.org/1999/xlink" width="100" zoomAndPan="magnify" viewBox="0 0 75 74.999997" height="100" preserveAspectRatio="xMidYMid meet" version="1.0"><defs><clipPath id="6b54a080d7"><path d="M 3.476562 7.003906 L 71.726562 7.003906 L 71.726562 67.753906 L 3.476562 67.753906 Z M 3.476562 7.003906 " clip-rule="nonzero"/></clipPath></defs><rect x="-7.5" width="90" fill="#ffffff" y="-7.5" height="89.999996" fill-opacity="1"/><rect x="-7.5" width="90" fill="#ffffff" y="-7.5" height="89.999996" fill-opacity="1"/><g clip-path="url(#6b54a080d7)"><path fill="#ffbd59" d="M 69.203125 14.777344 L 5.789062 14.777344 L 5.789062 65.675781 L 69.203125 65.675781 Z M 63.464844 25.101562 C 61.433594 25.101562 59.796875 23.425781 59.796875 21.433594 C 59.796875 19.402344 61.433594 17.726562 63.464844 17.726562 C 65.496094 17.726562 67.132812 19.402344 67.132812 21.433594 C 67.132812 23.425781 65.496094 25.101562 63.464844 25.101562 Z M 65.097656 29.726562 L 61.671875 29.726562 C 60.117188 29.726562 60.117188 27.414062 61.671875 27.414062 L 65.097656 27.414062 C 66.613281 27.414062 66.613281 29.726562 65.097656 29.726562 Z M 57.445312 29.726562 L 54.019531 29.726562 C 52.503906 29.726562 52.503906 27.414062 54.019531 27.414062 L 57.445312 27.414062 C 58.960938 27.414062 58.960938 29.726562 57.445312 29.726562 Z M 49.792969 29.726562 L 46.367188 29.726562 C 44.851562 29.726562 44.851562 27.414062 46.367188 27.414062 L 49.792969 27.414062 C 51.308594 27.414062 51.308594 29.726562 49.792969 29.726562 Z M 41.222656 29.726562 L 9.894531 29.726562 C 9.257812 29.726562 8.738281 29.207031 8.738281 28.570312 L 8.738281 24.382812 C 8.738281 23.746094 9.257812 23.226562 9.894531 23.226562 L 41.222656 23.226562 C 41.859375 23.226562 42.378906 23.746094 42.378906 24.382812 L 42.378906 28.570312 C 42.378906 29.207031 41.859375 29.726562 41.222656 29.726562 Z M 22.96875 20.039062 L 9.574219 20.039062 C 8.019531 20.039062 8.019531 17.726562 9.574219 17.726562 L 22.96875 17.726562 C 24.484375 17.726562 24.484375 20.039062 22.96875 20.039062 Z M 44.132812 60.617188 L 20.257812 60.617188 C 18.742188 60.617188 18.742188 58.304688 20.257812 58.304688 L 44.132812 58.304688 C 45.648438 58.304688 45.648438 60.617188 44.132812 60.617188 Z M 54.816406 60.617188 L 50.230469 60.617188 C 48.71875 60.617188 48.71875 58.304688 50.230469 58.304688 L 54.816406 58.304688 C 56.332031 58.304688 56.332031 60.617188 54.816406 60.617188 Z M 65.539062 60.617188 L 60.953125 60.617188 C 59.4375 60.617188 59.4375 58.304688 60.953125 58.304688 L 65.539062 58.304688 C 67.050781 58.304688 67.050781 60.617188 65.539062 60.617188 Z M 44.132812 51.765625 L 20.257812 51.765625 C 18.742188 51.765625 18.742188 49.453125 20.257812 49.453125 L 44.132812 49.453125 C 45.648438 49.453125 45.648438 51.765625 44.132812 51.765625 Z M 54.816406 51.765625 L 50.230469 51.765625 C 48.71875 51.765625 48.71875 49.453125 50.230469 49.453125 L 54.816406 49.453125 C 56.332031 49.453125 56.332031 51.765625 54.816406 51.765625 Z M 65.539062 51.765625 L 60.953125 51.765625 C 59.4375 51.765625 59.4375 49.453125 60.953125 49.453125 L 65.539062 49.453125 C 67.050781 49.453125 67.050781 51.765625 65.539062 51.765625 Z M 44.132812 42.917969 L 20.257812 42.917969 C 18.742188 42.917969 18.742188 40.605469 20.257812 40.605469 L 44.132812 40.605469 C 45.648438 40.605469 45.648438 42.917969 44.132812 42.917969 Z M 54.816406 42.917969 L 50.230469 42.917969 C 48.71875 42.917969 48.71875 40.605469 50.230469 40.605469 L 54.816406 40.605469 C 56.332031 40.605469 56.332031 42.917969 54.816406 42.917969 Z M 65.539062 42.917969 L 60.953125 42.917969 C 59.4375 42.917969 59.4375 40.605469 60.953125 40.605469 L 65.539062 40.605469 C 67.050781 40.605469 67.050781 42.917969 65.539062 42.917969 Z M 11.847656 63.007812 C 9.894531 63.007812 8.300781 61.414062 8.300781 59.460938 C 8.300781 57.507812 9.894531 55.910156 11.847656 55.910156 C 13.800781 55.910156 15.394531 57.507812 15.394531 59.460938 C 15.394531 61.414062 13.800781 63.007812 11.847656 63.007812 Z M 11.847656 54.160156 C 9.894531 54.160156 8.300781 52.5625 8.300781 50.609375 C 8.300781 48.65625 9.894531 47.0625 11.847656 47.0625 C 13.800781 47.0625 15.394531 48.65625 15.394531 50.609375 C 15.394531 52.5625 13.800781 54.160156 11.847656 54.160156 Z M 11.847656 45.308594 C 9.894531 45.308594 8.300781 43.714844 8.300781 41.761719 C 8.300781 39.808594 9.894531 38.214844 11.847656 38.214844 C 13.800781 38.214844 15.394531 39.808594 15.394531 41.761719 C 15.394531 43.714844 13.800781 45.308594 11.847656 45.308594 Z M 24.839844 36.140625 L 20.257812 36.140625 C 18.742188 36.140625 18.742188 33.832031 20.257812 33.832031 L 24.839844 33.832031 C 26.355469 33.832031 26.355469 36.140625 24.839844 36.140625 Z M 14.121094 36.140625 L 9.574219 36.140625 C 8.019531 36.140625 8.019531 33.832031 9.574219 33.832031 L 14.121094 33.832031 C 15.632812 33.832031 15.632812 36.140625 14.121094 36.140625 Z M 3.476562 13.660156 L 3.476562 8.160156 C 3.476562 7.523438 3.996094 7.003906 4.632812 7.003906 L 70.359375 7.003906 C 71 7.003906 71.515625 7.523438 71.515625 8.160156 L 71.515625 66.832031 C 71.515625 67.472656 71 67.988281 70.359375 67.988281 L 4.632812 67.988281 C 3.996094 67.988281 3.476562 67.472656 3.476562 66.832031 Z M 3.476562 13.660156 " fill-opacity="1" fill-rule="evenodd"/></g></svg>